<?xml version="1.0" encoding="UTF-8"?>
<svg xmlns="http://www.w3.org/2000/svg" width="313.302" height="344.646" viewBox="0 0 313.302 344.646">
  <g id="react_native" data-name="react native" transform="translate(-1074.336 -1442.927)">
    <g id="React-icon" transform="translate(1080.125 1442.927)">
      <path id="Path_2052" data-name="Path 2052" d="M476.825,212.113c0-19.948-24.981-38.853-63.282-50.576,8.839-39.037,4.91-70.095-12.4-80.038A26.911,26.911,0,0,0,387.4,78.061V91.749a14.213,14.213,0,0,1,7,1.6c8.348,4.788,11.969,23.017,9.146,46.464-.675,5.77-1.78,11.846-3.13,18.045a297.461,297.461,0,0,0-38.976-6.69A299.4,299.4,0,0,0,335.9,120.474c20.01-18.6,38.792-28.787,51.558-28.787V78h0c-16.879,0-38.976,12.03-61.318,32.9C303.8,90.153,281.7,78.246,264.822,78.246V91.933c12.705,0,31.549,10.128,51.558,28.6a289.9,289.9,0,0,0-25.35,30.628,286.632,286.632,0,0,0-39.037,6.752c-1.412-6.138-2.455-12.092-3.192-17.8-2.885-23.447.675-41.676,8.961-46.525a13.66,13.66,0,0,1,7.059-1.6V78.307h0a27.368,27.368,0,0,0-13.872,3.437c-17.247,9.943-21.114,40.94-12.214,79.854-38.178,11.785-63.036,30.628-63.036,50.515,0,19.948,24.981,38.853,63.282,50.576-8.839,39.037-4.91,70.095,12.4,80.038a26.982,26.982,0,0,0,13.81,3.437c16.879,0,38.976-12.03,61.318-32.9,22.342,20.746,44.438,32.654,61.318,32.654a27.368,27.368,0,0,0,13.872-3.437c17.247-9.943,21.114-40.94,12.214-79.854C451.967,250.9,476.825,232,476.825,212.113Zm-79.915-40.94c-2.271,7.918-5.095,16.081-8.286,24.245-2.517-4.91-5.156-9.821-8.041-14.731-2.823-4.91-5.831-9.7-8.839-14.363C380.46,167.613,388.869,169.209,396.91,171.173ZM368.8,236.542c-4.788,8.286-9.7,16.143-14.792,23.447-9.145.8-18.414,1.228-27.743,1.228-9.268,0-18.536-.43-27.621-1.166Q291,249.094,283.788,236.726q-7-12.061-12.767-24.429c3.806-8.225,8.1-16.45,12.705-24.49,4.788-8.286,9.7-16.143,14.792-23.447,9.145-.8,18.414-1.228,27.743-1.228,9.268,0,18.536.43,27.621,1.166q7.642,10.956,14.854,23.324,7,12.061,12.767,24.429C377.637,220.276,373.4,228.5,368.8,236.542Zm19.825-7.979c3.314,8.225,6.138,16.45,8.47,24.429-8.041,1.964-16.511,3.621-25.288,4.91,3.008-4.726,6.015-9.575,8.839-14.547C383.468,238.445,386.107,233.473,388.624,228.563Zm-62.238,65.491a253.023,253.023,0,0,1-17.063-19.641c5.524.245,11.171.43,16.879.43,5.77,0,11.478-.123,17.063-.43A239.561,239.561,0,0,1,326.385,294.054ZM280.719,257.9c-8.716-1.289-17.125-2.885-25.165-4.849,2.271-7.918,5.094-16.081,8.286-24.245,2.517,4.91,5.156,9.821,8.041,14.731S277.712,253.237,280.719,257.9Zm45.359-127.73a253.056,253.056,0,0,1,17.063,19.641c-5.524-.246-11.171-.43-16.879-.43-5.77,0-11.478.123-17.063.43A239.573,239.573,0,0,1,326.078,130.172Zm-45.42,36.152c-3.008,4.726-6.015,9.575-8.839,14.547-2.823,4.91-5.463,9.821-7.979,14.731-3.314-8.225-6.138-16.45-8.47-24.429C263.411,169.27,271.881,167.613,280.658,166.324ZM225.11,243.171c-21.728-9.268-35.784-21.421-35.784-31.058s14.056-21.851,35.784-31.058c5.279-2.271,11.048-4.3,17-6.2a294.794,294.794,0,0,0,13.81,37.38,290.638,290.638,0,0,0-13.626,37.2C236.22,247.529,230.45,245.442,225.11,243.171Zm33.022,87.71c-8.348-4.788-11.969-23.017-9.145-46.464.675-5.77,1.78-11.846,3.13-18.045a297.445,297.445,0,0,0,38.976,6.69,299.408,299.408,0,0,0,25.534,30.689c-20.01,18.6-38.791,28.787-51.558,28.787A14.648,14.648,0,0,1,258.132,330.881Zm145.591-46.771c2.885,23.447-.675,41.676-8.961,46.525a13.66,13.66,0,0,1-7.059,1.6c-12.705,0-31.549-10.127-51.558-28.6A289.9,289.9,0,0,0,361.494,273a286.619,286.619,0,0,0,39.037-6.752A171.845,171.845,0,0,1,403.723,284.111Zm23.631-40.94c-5.279,2.271-11.048,4.3-17,6.2a294.8,294.8,0,0,0-13.81-37.38,290.637,290.637,0,0,0,13.626-37.2c6.077,1.9,11.846,3.99,17.247,6.261,21.728,9.268,35.784,21.421,35.784,31.058C463.138,221.749,449.082,233.964,427.354,243.171Z" transform="translate(-175.7 -78)" fill="#61dafb"/>
      <path id="Path_2053" data-name="Path 2053" d="M320.8,78.4Z" transform="translate(-231.739 -78.154)" fill="#61dafb"/>
      <circle id="Ellipse_75" data-name="Ellipse 75" cx="28.05" cy="28.05" r="28.05" transform="translate(122.451 106.063)" fill="#61dafb"/>
      <path id="Path_2054" data-name="Path 2054" d="M520.5,78.1Z" transform="translate(-308.865 -78.039)" fill="#61dafb"/>
    </g>
    <path id="Path_3674" data-name="Path 3674" d="M4.211,0V-35.684H17.527q13.152,0,13.152,10.828a10.042,10.042,0,0,1-2.133,6.59,10.716,10.716,0,0,1-5.988,3.527L32.1,0H26.086L17.035-14.055H9.406V0Zm5.2-18.977h8.121q4.32,0,6.139-1.531a5.369,5.369,0,0,0,1.818-4.348,5.445,5.445,0,0,0-1.8-4.416q-1.8-1.518-6.152-1.518H9.406Zm27.252,5.414a25.681,25.681,0,0,1,.37-4.525,14.85,14.85,0,0,1,1.262-3.9,10.606,10.606,0,0,1,2.236-3.1,9.568,9.568,0,0,1,3.416-2.01,14.054,14.054,0,0,1,4.733-.738q5.572,0,8.549,3.076T60.2-15.723a14.155,14.155,0,0,1-.492,4.02H41.853v.219a6.732,6.732,0,0,0,2.115,5.4q2.115,1.818,6.154,1.818a21.878,21.878,0,0,0,4.615-.506,16,16,0,0,0,3.851-1.271L59.3-1.285A22.364,22.364,0,0,1,50.067.492q-6.773,0-10.091-3.432T36.658-13.562Zm5.2-2.352H55.388v-.328q0-3.609-1.774-5.387a6.821,6.821,0,0,0-5.049-1.777q-6.713,0-6.713,7.164ZM66.835-7.9q0-4.512,2.953-6.535t8.531-2.023h5.2v-2.406a3.635,3.635,0,0,0-1.641-3.377,9.313,9.313,0,0,0-4.785-1,21.048,21.048,0,0,0-7.465,1.285l-.766-4.648a32.167,32.167,0,0,1,8.5-1.23,18.344,18.344,0,0,1,4.454.492,10.572,10.572,0,0,1,3.509,1.572,6.973,6.973,0,0,1,2.385,2.953,10.835,10.835,0,0,1,.836,4.443V0H84.28l-.709-4.266A8.4,8.4,0,0,1,80.59-.848,8.843,8.843,0,0,1,75.558.492,11.135,11.135,0,0,1,72.222.014,8.381,8.381,0,0,1,69.46-1.449a6.562,6.562,0,0,1-1.928-2.639A9.753,9.753,0,0,1,66.835-7.9Zm5.031-.219q0,4.32,4.949,4.32a6.35,6.35,0,0,0,5.018-1.9,7.67,7.67,0,0,0,1.682-5.264v-1.586h-5.2a9.105,9.105,0,0,0-4.895,1.025A3.768,3.768,0,0,0,71.866-8.121Zm24.025-5.387a19.876,19.876,0,0,1,.789-5.811,13.185,13.185,0,0,1,2.352-4.512,10.1,10.1,0,0,1,4.078-2.967,15.081,15.081,0,0,1,5.8-1.039,18.071,18.071,0,0,1,7.191,1.395l-.793,4.813a14.03,14.03,0,0,0-6.262-1.449q-4.4,0-6.262,2.365t-1.859,6.877q0,4.949,2.037,7.26t6.467,2.311A16.268,16.268,0,0,0,115.8-5.5l.793,4.7A20.986,20.986,0,0,1,109.1.492q-6.289,0-9.748-3.568T95.891-13.508Zm27.17,3.883V-34.562h5.031v7.3H138.51V-22.5H128.092V-9.625q0,2.926,1.2,4.143a4.709,4.709,0,0,0,3.5,1.217,14.438,14.438,0,0,0,6.043-1.23l.793,4.7A17.25,17.25,0,0,1,132.8.492Q123.061.492,123.061-9.625ZM163.318,0V-35.684h5.031l16.242,26v-26h5.2V0H184.7L168.513-25.977V0Zm34.525-7.9q0-4.512,2.953-6.535t8.531-2.023h5.2v-2.406a3.635,3.635,0,0,0-1.641-3.377,9.313,9.313,0,0,0-4.785-1,21.048,21.048,0,0,0-7.465,1.285l-.766-4.648a32.167,32.167,0,0,1,8.5-1.23,18.344,18.344,0,0,1,4.454.492,10.572,10.572,0,0,1,3.509,1.572,6.973,6.973,0,0,1,2.385,2.953,10.834,10.834,0,0,1,.836,4.443V0h-4.266l-.709-4.266A8.4,8.4,0,0,1,211.6-.848a8.843,8.843,0,0,1-5.033,1.34A11.135,11.135,0,0,1,203.23.014a8.381,8.381,0,0,1-2.762-1.463,6.562,6.562,0,0,1-1.928-2.639A9.753,9.753,0,0,1,197.843-7.9Zm5.031-.219q0,4.32,4.949,4.32a6.35,6.35,0,0,0,5.018-1.9,7.67,7.67,0,0,0,1.682-5.264v-1.586h-5.2a9.105,9.105,0,0,0-4.895,1.025A3.768,3.768,0,0,0,202.874-8.121Zm24.6-1.5V-34.562H232.5v7.3h10.418V-22.5H232.5V-9.625q0,2.926,1.2,4.143a4.709,4.709,0,0,0,3.5,1.217,14.438,14.438,0,0,0,6.043-1.23l.793,4.7A17.25,17.25,0,0,1,237.208.492Q227.473.492,227.473-9.625Zm23.341-26.66a3.081,3.081,0,0,1,.926-2.283A3.092,3.092,0,0,1,254-39.484a3.046,3.046,0,0,1,2.259.943,3.106,3.106,0,0,1,.926,2.256,3.106,3.106,0,0,1-.926,2.256,3.046,3.046,0,0,1-2.259.943,3.046,3.046,0,0,1-2.259-.943A3.106,3.106,0,0,1,250.815-36.285ZM251.5,0V-27.262h5.031V0ZM263-27.262h5.25l8.477,21.109,8.395-21.109h5.3L279.351,0h-5.277Zm30.97,13.7a25.681,25.681,0,0,1,.37-4.525,14.85,14.85,0,0,1,1.262-3.9,10.606,10.606,0,0,1,2.236-3.1,9.568,9.568,0,0,1,3.416-2.01,14.054,14.054,0,0,1,4.733-.738q5.572,0,8.549,3.076t2.977,9.037a14.155,14.155,0,0,1-.492,4.02H299.165v.219a6.732,6.732,0,0,0,2.115,5.4q2.115,1.818,6.154,1.818a21.878,21.878,0,0,0,4.615-.506A16,16,0,0,0,315.9-6.043l.711,4.758A22.364,22.364,0,0,1,307.379.492q-6.773,0-10.091-3.432T293.97-13.562Zm5.2-2.352H312.7v-.328q0-3.609-1.774-5.387a6.821,6.821,0,0,0-5.049-1.777q-6.713,0-6.713,7.164Z" transform="translate(1070.125 1787.08)" fill="#61dafb"/>
  </g>
</svg>